solid OpenSCAD_Model
  facet normal 0.994522 0 0.104528
    outer loop
      vertex 11.25 -11.25 0
      vertex 10.7088 -10.25 5.14877
      vertex 10.7088 -11.25 5.14877
    endloop
  endfacet
  facet normal 0.994522 0 0.104528
    outer loop
      vertex 10.7088 -10.25 5.14877
      vertex 11.25 -11.25 0
      vertex 11.25 11.25 0
    endloop
  endfacet
  facet normal 0.994522 0 0.104529
    outer loop
      vertex 11.25 11.25 0
      vertex 11.0388 11.25 2.00949
      vertex 11.0388 10.25 2.00949
    endloop
  endfacet
  facet normal 0.994522 0 0.104528
    outer loop
      vertex 11.0388 10.25 2.00949
      vertex 8.5 10.25 26.1645
      vertex 8.5 -10.25 26.1645
    endloop
  endfacet
  facet normal 0.994522 -1.76685e-09 0.104528
    outer loop
      vertex 10.7088 -10.25 5.14877
      vertex 11.0388 10.25 2.00949
      vertex 8.5 -10.25 26.1645
    endloop
  endfacet
  facet normal 0.994522 8.60573e-09 0.104529
    outer loop
      vertex 11.25 11.25 0
      vertex 11.0388 10.25 2.00949
      vertex 10.7088 -10.25 5.14877
    endloop
  endfacet
  facet normal -0.994522 0 0.104528
    outer loop
      vertex -11.25 -11.25 0
      vertex -10.7088 -10.25 5.14877
      vertex -11.25 11.25 0
    endloop
  endfacet
  facet normal -0.994522 0 0.104528
    outer loop
      vertex -10.7088 -10.25 5.14877
      vertex -11.25 -11.25 0
      vertex -10.7088 -11.25 5.14877
    endloop
  endfacet
  facet normal -0.994522 0 0.104529
    outer loop
      vertex -11.0388 10.25 2.00949
      vertex -11.0388 11.25 2.00949
      vertex -11.25 11.25 0
    endloop
  endfacet
  facet normal -0.994522 8.60573e-09 0.104529
    outer loop
      vertex -10.7088 -10.25 5.14877
      vertex -11.0388 10.25 2.00949
      vertex -11.25 11.25 0
    endloop
  endfacet
  facet normal -0.994522 -1.53723e-09 0.104528
    outer loop
      vertex -10.7088 -10.25 5.14877
      vertex -8.5 10.25 26.1645
      vertex -11.0388 10.25 2.00949
    endloop
  endfacet
  facet normal -0.994522 0 0.104528
    outer loop
      vertex -8.5 -10.25 26.1645
      vertex -8.5 10.25 26.1645
      vertex -10.7088 -10.25 5.14877
    endloop
  endfacet
  facet normal -0 0 1
    outer loop
      vertex 2.75 -3.63971 26.1645
      vertex 8.5 -10.25 26.1645
      vertex 2.75 3.63971 26.1645
    endloop
  endfacet
  facet normal 0 0 1
    outer loop
      vertex 3 5 26.1645
      vertex -2.75 3.63971 26.1645
      vertex 2.75 3.63971 26.1645
    endloop
  endfacet
  facet normal 0 0 1
    outer loop
      vertex -2.75 3.63971 26.1645
      vertex -3 5 26.1645
      vertex -2.75 -3.63971 26.1645
    endloop
  endfacet
  facet normal -0 0 1
    outer loop
      vertex -3 5 26.1645
      vertex -2.75 3.63971 26.1645
      vertex 3 5 26.1645
    endloop
  endfacet
  facet normal 0 0 1
    outer loop
      vertex 3 5 26.1645
      vertex 8.5 10.25 26.1645
      vertex 3 7 26.1645
    endloop
  endfacet
  facet normal 0 0 1
    outer loop
      vertex 8.5 10.25 26.1645
      vertex -3 7 26.1645
      vertex 3 7 26.1645
    endloop
  endfacet
  facet normal 0 0 1
    outer loop
      vertex -8.5 10.25 26.1645
      vertex -3 5 26.1645
      vertex -3 7 26.1645
    endloop
  endfacet
  facet normal 0 0 1
    outer loop
      vertex -3 5 26.1645
      vertex -8.5 10.25 26.1645
      vertex -3 -5 26.1645
    endloop
  endfacet
  facet normal 0 0 1
    outer loop
      vertex -8.5 -10.25 26.1645
      vertex -3 -5 26.1645
      vertex -8.5 10.25 26.1645
    endloop
  endfacet
  facet normal -0 0 1
    outer loop
      vertex -8.5 10.25 26.1645
      vertex -3 7 26.1645
      vertex 8.5 10.25 26.1645
    endloop
  endfacet
  facet normal 0 0 1
    outer loop
      vertex 2.75 3.63971 26.1645
      vertex 8.5 10.25 26.1645
      vertex 3 5 26.1645
    endloop
  endfacet
  facet normal 0 0 1
    outer loop
      vertex 8.5 10.25 26.1645
      vertex 2.75 3.63971 26.1645
      vertex 8.5 -10.25 26.1645
    endloop
  endfacet
  facet normal -0 0 1
    outer loop
      vertex 3 -7 26.1645
      vertex 8.5 -10.25 26.1645
      vertex 3 -5 26.1645
    endloop
  endfacet
  facet normal -0 0 1
    outer loop
      vertex -3 -7 26.1645
      vertex 8.5 -10.25 26.1645
      vertex 3 -7 26.1645
    endloop
  endfacet
  facet normal 0 0 1
    outer loop
      vertex -3 -7 26.1645
      vertex -8.5 -10.25 26.1645
      vertex 8.5 -10.25 26.1645
    endloop
  endfacet
  facet normal 0 0 1
    outer loop
      vertex -3 -5 26.1645
      vertex -8.5 -10.25 26.1645
      vertex -3 -7 26.1645
    endloop
  endfacet
  facet normal 0 0 1
    outer loop
      vertex 8.5 -10.25 26.1645
      vertex 2.75 -3.63971 26.1645
      vertex 3 -5 26.1645
    endloop
  endfacet
  facet normal -0 0 1
    outer loop
      vertex -2.75 -3.63971 26.1645
      vertex 3 -5 26.1645
      vertex 2.75 -3.63971 26.1645
    endloop
  endfacet
  facet normal 0 0 1
    outer loop
      vertex -2.75 -3.63971 26.1645
      vertex -3 -5 26.1645
      vertex 3 -5 26.1645
    endloop
  endfacet
  facet normal 0 0 1
    outer loop
      vertex -3 -5 26.1645
      vertex -2.75 -3.63971 26.1645
      vertex -3 5 26.1645
    endloop
  endfacet
  facet normal -1 0 0
    outer loop
      vertex 2.75 -3.63971 24.1645
      vertex 2.75 3.63971 26.1645
      vertex 2.75 3.63971 24.1645
    endloop
  endfacet
  facet normal -1 -0 0
    outer loop
      vertex 2.75 3.63971 26.1645
      vertex 2.75 -3.63971 24.1645
      vertex 2.75 -3.63971 26.1645
    endloop
  endfacet
  facet normal 0 1 -0
    outer loop
      vertex 2.75 -3.63971 24.1645
      vertex -2.75 -3.63971 26.1645
      vertex 2.75 -3.63971 26.1645
    endloop
  endfacet
  facet normal 0 1 0
    outer loop
      vertex -2.75 -3.63971 26.1645
      vertex 2.75 -3.63971 24.1645
      vertex -2.75 -3.63971 24.1645
    endloop
  endfacet
  facet normal 1 -0 0
    outer loop
      vertex -2.75 -3.63971 26.1645
      vertex -2.75 3.63971 24.1645
      vertex -2.75 3.63971 26.1645
    endloop
  endfacet
  facet normal 1 0 0
    outer loop
      vertex -2.75 3.63971 24.1645
      vertex -2.75 -3.63971 26.1645
      vertex -2.75 -3.63971 24.1645
    endloop
  endfacet
  facet normal 0 -1 0
    outer loop
      vertex -2.75 3.63971 24.1645
      vertex 2.75 3.63971 26.1645
      vertex -2.75 3.63971 26.1645
    endloop
  endfacet
  facet normal 0 -1 -0
    outer loop
      vertex 2.75 3.63971 26.1645
      vertex -2.75 3.63971 24.1645
      vertex 2.75 3.63971 24.1645
    endloop
  endfacet
  facet normal 0 0 -1
    outer loop
      vertex -11.25 -11.25 0
      vertex 11.25 11.25 0
      vertex 11.25 -11.25 0
    endloop
  endfacet
  facet normal -0 0 -1
    outer loop
      vertex 11.25 11.25 0
      vertex -11.25 -11.25 0
      vertex -11.25 11.25 0
    endloop
  endfacet
  facet normal 0 -1 -0
    outer loop
      vertex -2.14553 -11.25 4.61001
      vertex -11.25 -11.25 0
      vertex 2.14553 -11.25 4.61001
    endloop
  endfacet
  facet normal 0 -1 -0
    outer loop
      vertex -6.43283 -11.25 4.7897
      vertex -11.25 -11.25 0
      vertex -2.14553 -11.25 4.61001
    endloop
  endfacet
  facet normal 0 -1 0
    outer loop
      vertex -11.25 -11.25 0
      vertex -6.43283 -11.25 4.7897
      vertex -10.7088 -11.25 5.14877
    endloop
  endfacet
  facet normal 0 -1 0
    outer loop
      vertex 11.25 -11.25 0
      vertex 2.14553 -11.25 4.61001
      vertex -11.25 -11.25 0
    endloop
  endfacet
  facet normal 0 -1 0
    outer loop
      vertex 2.14553 -11.25 4.61001
      vertex 11.25 -11.25 0
      vertex 6.43283 -11.25 4.7897
    endloop
  endfacet
  facet normal 0 -1 0
    outer loop
      vertex 6.43283 -11.25 4.7897
      vertex 11.25 -11.25 0
      vertex 10.7088 -11.25 5.14877
    endloop
  endfacet
  facet normal 0 1 0
    outer loop
      vertex 2.21164 11.25 1.45414
      vertex 11.25 11.25 0
      vertex -2.21164 11.25 1.45414
    endloop
  endfacet
  facet normal 0 1 0
    outer loop
      vertex 6.63103 11.25 1.63936
      vertex 11.25 11.25 0
      vertex 2.21164 11.25 1.45414
    endloop
  endfacet
  facet normal 0 1 0
    outer loop
      vertex 11.25 11.25 0
      vertex 6.63103 11.25 1.63936
      vertex 11.0388 11.25 2.00949
    endloop
  endfacet
  facet normal 0 1 0
    outer loop
      vertex -11.25 11.25 0
      vertex -2.21164 11.25 1.45414
      vertex 11.25 11.25 0
    endloop
  endfacet
  facet normal 0 1 0
    outer loop
      vertex -2.21164 11.25 1.45414
      vertex -11.25 11.25 0
      vertex -6.63103 11.25 1.63936
    endloop
  endfacet
  facet normal 0 1 0
    outer loop
      vertex -6.63103 11.25 1.63936
      vertex -11.25 11.25 0
      vertex -11.0388 11.25 2.00949
    endloop
  endfacet
  facet normal 0 0.984808 -0.173648
    outer loop
      vertex 3 7 26.1645
      vertex -3.52898 7.52898 29.1645
      vertex 3.52898 7.52898 29.1645
    endloop
  endfacet
  facet normal 0 0.984808 -0.173648
    outer loop
      vertex -3.52898 7.52898 29.1645
      vertex 3 7 26.1645
      vertex -3 7 26.1645
    endloop
  endfacet
  facet normal -0.984808 0 -0.173648
    outer loop
      vertex -3.52898 5 29.1645
      vertex -3 7 26.1645
      vertex -3 5 26.1645
    endloop
  endfacet
  facet normal -0.984808 0 -0.173648
    outer loop
      vertex -3 7 26.1645
      vertex -3.52898 5 29.1645
      vertex -3.52898 7.52898 29.1645
    endloop
  endfacet
  facet normal 0 -1 0
    outer loop
      vertex -3 5 26.1645
      vertex 3.52898 5 29.1645
      vertex -3.52898 5 29.1645
    endloop
  endfacet
  facet normal 0 -1 0
    outer loop
      vertex 3.52898 5 29.1645
      vertex -3 5 26.1645
      vertex 3 5 26.1645
    endloop
  endfacet
  facet normal 0.984808 0 -0.173648
    outer loop
      vertex 3.52898 5 29.1645
      vertex 3 7 26.1645
      vertex 3.52898 7.52898 29.1645
    endloop
  endfacet
  facet normal 0.984808 0 -0.173648
    outer loop
      vertex 3 7 26.1645
      vertex 3.52898 5 29.1645
      vertex 3 5 26.1645
    endloop
  endfacet
  facet normal -0 0 1
    outer loop
      vertex -3.52898 7.52898 29.1645
      vertex 3.52898 5 29.1645
      vertex 3.52898 7.52898 29.1645
    endloop
  endfacet
  facet normal 0 0 1
    outer loop
      vertex 3.52898 5 29.1645
      vertex -3.52898 7.52898 29.1645
      vertex -3.52898 5 29.1645
    endloop
  endfacet
  facet normal 0 1 -0
    outer loop
      vertex 3 -5 26.1645
      vertex -3.52898 -5 29.1645
      vertex 3.52898 -5 29.1645
    endloop
  endfacet
  facet normal 0 1 0
    outer loop
      vertex -3.52898 -5 29.1645
      vertex 3 -5 26.1645
      vertex -3 -5 26.1645
    endloop
  endfacet
  facet normal -0.984808 0 -0.173648
    outer loop
      vertex -3 -7 26.1645
      vertex -3.52898 -5 29.1645
      vertex -3 -5 26.1645
    endloop
  endfacet
  facet normal -0.984808 -0 -0.173648
    outer loop
      vertex -3.52898 -5 29.1645
      vertex -3 -7 26.1645
      vertex -3.52898 -7.52898 29.1645
    endloop
  endfacet
  facet normal 0 -0.984808 -0.173648
    outer loop
      vertex -3 -7 26.1645
      vertex 3.52898 -7.52898 29.1645
      vertex -3.52898 -7.52898 29.1645
    endloop
  endfacet
  facet normal 0 -0.984808 -0.173648
    outer loop
      vertex 3.52898 -7.52898 29.1645
      vertex -3 -7 26.1645
      vertex 3 -7 26.1645
    endloop
  endfacet
  facet normal 0.984808 0 -0.173648
    outer loop
      vertex 3.52898 -5 29.1645
      vertex 3 -7 26.1645
      vertex 3 -5 26.1645
    endloop
  endfacet
  facet normal 0.984808 0 -0.173648
    outer loop
      vertex 3 -7 26.1645
      vertex 3.52898 -5 29.1645
      vertex 3.52898 -7.52898 29.1645
    endloop
  endfacet
  facet normal -0 0 1
    outer loop
      vertex -3.52898 -5 29.1645
      vertex 3.52898 -7.52898 29.1645
      vertex 3.52898 -5 29.1645
    endloop
  endfacet
  facet normal 0 0 1
    outer loop
      vertex 3.52898 -7.52898 29.1645
      vertex -3.52898 -5 29.1645
      vertex -3.52898 -7.52898 29.1645
    endloop
  endfacet
  facet normal -0 0 1
    outer loop
      vertex -2.75 3.63971 24.1645
      vertex 2.75 -3.63971 24.1645
      vertex 2.75 3.63971 24.1645
    endloop
  endfacet
  facet normal 0 0 1
    outer loop
      vertex 2.75 -3.63971 24.1645
      vertex -2.75 3.63971 24.1645
      vertex -2.75 -3.63971 24.1645
    endloop
  endfacet
  facet normal -0.0836779 0 0.996493
    outer loop
      vertex 6.63103 11.25 1.63936
      vertex 11.0388 10.25 2.00949
      vertex 11.0388 11.25 2.00949
    endloop
  endfacet
  facet normal -0.0836779 0 0.996493
    outer loop
      vertex 11.0388 10.25 2.00949
      vertex 6.63103 11.25 1.63936
      vertex 6.63103 10.25 1.63936
    endloop
  endfacet
  facet normal -0.0418756 0 0.999123
    outer loop
      vertex 2.21164 11.25 1.45414
      vertex 6.63103 10.25 1.63936
      vertex 6.63103 11.25 1.63936
    endloop
  endfacet
  facet normal -0.0418756 0 0.999123
    outer loop
      vertex 6.63103 10.25 1.63936
      vertex 2.21164 11.25 1.45414
      vertex 2.21164 10.25 1.45414
    endloop
  endfacet
  facet normal -0 0 1
    outer loop
      vertex -2.21164 11.25 1.45414
      vertex 2.21164 10.25 1.45414
      vertex 2.21164 11.25 1.45414
    endloop
  endfacet
  facet normal 0 0 1
    outer loop
      vertex 2.21164 10.25 1.45414
      vertex -2.21164 11.25 1.45414
      vertex -2.21164 10.25 1.45414
    endloop
  endfacet
  facet normal 0.0418756 0 0.999123
    outer loop
      vertex -6.63103 11.25 1.63936
      vertex -2.21164 10.25 1.45414
      vertex -2.21164 11.25 1.45414
    endloop
  endfacet
  facet normal 0.0418756 0 0.999123
    outer loop
      vertex -2.21164 10.25 1.45414
      vertex -6.63103 11.25 1.63936
      vertex -6.63103 10.25 1.63936
    endloop
  endfacet
  facet normal 0.0836779 0 0.996493
    outer loop
      vertex -11.0388 11.25 2.00949
      vertex -6.63103 10.25 1.63936
      vertex -6.63103 11.25 1.63936
    endloop
  endfacet
  facet normal 0.0836779 0 0.996493
    outer loop
      vertex -6.63103 10.25 1.63936
      vertex -11.0388 11.25 2.00949
      vertex -11.0388 10.25 2.00949
    endloop
  endfacet
  facet normal 0 1 0
    outer loop
      vertex 6.63103 10.25 1.63936
      vertex 8.5 10.25 26.1645
      vertex 11.0388 10.25 2.00949
    endloop
  endfacet
  facet normal 0 1 0
    outer loop
      vertex 2.21164 10.25 1.45414
      vertex 8.5 10.25 26.1645
      vertex 6.63103 10.25 1.63936
    endloop
  endfacet
  facet normal 0 1 0
    outer loop
      vertex 8.5 10.25 26.1645
      vertex 2.21164 10.25 1.45414
      vertex -8.5 10.25 26.1645
    endloop
  endfacet
  facet normal 0 1 0
    outer loop
      vertex -8.5 10.25 26.1645
      vertex -6.63103 10.25 1.63936
      vertex -11.0388 10.25 2.00949
    endloop
  endfacet
  facet normal 0 1 -0
    outer loop
      vertex -2.21164 10.25 1.45414
      vertex -8.5 10.25 26.1645
      vertex 2.21164 10.25 1.45414
    endloop
  endfacet
  facet normal 0 1 0
    outer loop
      vertex -8.5 10.25 26.1645
      vertex -2.21164 10.25 1.45414
      vertex -6.63103 10.25 1.63936
    endloop
  endfacet
  facet normal 0.0836779 0 0.996493
    outer loop
      vertex -10.7088 -10.25 5.14877
      vertex -6.43283 -11.25 4.7897
      vertex -6.43283 -10.25 4.7897
    endloop
  endfacet
  facet normal 0.0836779 0 0.996493
    outer loop
      vertex -6.43283 -11.25 4.7897
      vertex -10.7088 -10.25 5.14877
      vertex -10.7088 -11.25 5.14877
    endloop
  endfacet
  facet normal 0.0418757 0 0.999123
    outer loop
      vertex -6.43283 -10.25 4.7897
      vertex -2.14553 -11.25 4.61001
      vertex -2.14553 -10.25 4.61001
    endloop
  endfacet
  facet normal 0.0418757 0 0.999123
    outer loop
      vertex -2.14553 -11.25 4.61001
      vertex -6.43283 -10.25 4.7897
      vertex -6.43283 -11.25 4.7897
    endloop
  endfacet
  facet normal -0 0 1
    outer loop
      vertex -2.14553 -10.25 4.61001
      vertex 2.14553 -11.25 4.61001
      vertex 2.14553 -10.25 4.61001
    endloop
  endfacet
  facet normal 0 0 1
    outer loop
      vertex 2.14553 -11.25 4.61001
      vertex -2.14553 -10.25 4.61001
      vertex -2.14553 -11.25 4.61001
    endloop
  endfacet
  facet normal -0.0418757 0 0.999123
    outer loop
      vertex 2.14553 -10.25 4.61001
      vertex 6.43283 -11.25 4.7897
      vertex 6.43283 -10.25 4.7897
    endloop
  endfacet
  facet normal -0.0418757 0 0.999123
    outer loop
      vertex 6.43283 -11.25 4.7897
      vertex 2.14553 -10.25 4.61001
      vertex 2.14553 -11.25 4.61001
    endloop
  endfacet
  facet normal -0.0836779 0 0.996493
    outer loop
      vertex 6.43283 -10.25 4.7897
      vertex 10.7088 -11.25 5.14877
      vertex 10.7088 -10.25 5.14877
    endloop
  endfacet
  facet normal -0.0836779 0 0.996493
    outer loop
      vertex 10.7088 -11.25 5.14877
      vertex 6.43283 -10.25 4.7897
      vertex 6.43283 -11.25 4.7897
    endloop
  endfacet
  facet normal 0 -1 0
    outer loop
      vertex -6.43283 -10.25 4.7897
      vertex -8.5 -10.25 26.1645
      vertex -10.7088 -10.25 5.14877
    endloop
  endfacet
  facet normal 0 -1 0
    outer loop
      vertex -2.14553 -10.25 4.61001
      vertex -8.5 -10.25 26.1645
      vertex -6.43283 -10.25 4.7897
    endloop
  endfacet
  facet normal 0 -1 0
    outer loop
      vertex -8.5 -10.25 26.1645
      vertex -2.14553 -10.25 4.61001
      vertex 8.5 -10.25 26.1645
    endloop
  endfacet
  facet normal 0 -1 -0
    outer loop
      vertex 8.5 -10.25 26.1645
      vertex 6.43283 -10.25 4.7897
      vertex 10.7088 -10.25 5.14877
    endloop
  endfacet
  facet normal 0 -1 0
    outer loop
      vertex 2.14553 -10.25 4.61001
      vertex 8.5 -10.25 26.1645
      vertex -2.14553 -10.25 4.61001
    endloop
  endfacet
  facet normal 0 -1 0
    outer loop
      vertex 8.5 -10.25 26.1645
      vertex 2.14553 -10.25 4.61001
      vertex 6.43283 -10.25 4.7897
    endloop
  endfacet
  facet normal -0 0 1
    outer loop
      vertex -8.38624 9.05 6.2
      vertex -1.85638 5.96999 6.2
      vertex -1.85638 9.05 6.2
    endloop
  endfacet
  facet normal 0 0 1
    outer loop
      vertex -1.85638 5.96999 6.2
      vertex -8.38624 9.05 6.2
      vertex -1.85638 4.24199 6.2
    endloop
  endfacet
  facet normal 0 0 1
    outer loop
      vertex -8.38624 -9.05 6.2
      vertex -1.85638 4.24199 6.2
      vertex -8.38624 9.05 6.2
    endloop
  endfacet
  facet normal -0 0 1
    outer loop
      vertex -1.85638 5.96999 6.2
      vertex 1.59959 4.24199 6.2
      vertex 1.59959 5.96999 6.2
    endloop
  endfacet
  facet normal 0 0 1
    outer loop
      vertex 1.59959 4.24199 6.2
      vertex -1.85638 5.96999 6.2
      vertex -1.85638 4.24199 6.2
    endloop
  endfacet
  facet normal 0 0 1
    outer loop
      vertex 1.59959 5.96999 6.2
      vertex 8.38624 9.05 6.2
      vertex 1.59959 9.05 6.2
    endloop
  endfacet
  facet normal 0 0 1
    outer loop
      vertex 1.59959 4.24199 6.2
      vertex 8.38624 9.05 6.2
      vertex 1.59959 5.96999 6.2
    endloop
  endfacet
  facet normal 0 0 1
    outer loop
      vertex 8.38624 9.05 6.2
      vertex 1.59959 4.24199 6.2
      vertex 8.38624 -9.05 6.2
    endloop
  endfacet
  facet normal -0 0 1
    outer loop
      vertex 1.59959 -8.75 6.2
      vertex 8.38624 -9.05 6.2
      vertex 1.59959 4.24199 6.2
    endloop
  endfacet
  facet normal -0 0 1
    outer loop
      vertex -1.85638 -8.75 6.2
      vertex 8.38624 -9.05 6.2
      vertex 1.59959 -8.75 6.2
    endloop
  endfacet
  facet normal 0 0 1
    outer loop
      vertex -1.85638 -8.75 6.2
      vertex -8.38624 -9.05 6.2
      vertex 8.38624 -9.05 6.2
    endloop
  endfacet
  facet normal 0 0 1
    outer loop
      vertex -1.85638 4.24199 6.2
      vertex -8.38624 -9.05 6.2
      vertex -1.85638 -8.75 6.2
    endloop
  endfacet
  facet normal 0 -1 0
    outer loop
      vertex 1.59959 9.05 7.2
      vertex -6.82391 9.05 21.0645
      vertex -1.85638 9.05 7.2
    endloop
  endfacet
  facet normal 0 -1 0
    outer loop
      vertex -8.38624 9.05 6.2
      vertex -1.85638 9.05 7.2
      vertex -6.82391 9.05 21.0645
    endloop
  endfacet
  facet normal 0 -1 -0
    outer loop
      vertex -1.85638 9.05 7.2
      vertex -8.38624 9.05 6.2
      vertex -1.85638 9.05 6.2
    endloop
  endfacet
  facet normal 0 -1 0
    outer loop
      vertex -6.82391 9.05 21.0645
      vertex 1.59959 9.05 7.2
      vertex 6.82391 9.05 21.0645
    endloop
  endfacet
  facet normal 0 -1 0
    outer loop
      vertex 8.38624 9.05 6.2
      vertex 1.59959 9.05 7.2
      vertex 1.59959 9.05 6.2
    endloop
  endfacet
  facet normal 0 -1 0
    outer loop
      vertex 1.59959 9.05 7.2
      vertex 8.38624 9.05 6.2
      vertex 6.82391 9.05 21.0645
    endloop
  endfacet
  facet normal -0.994522 0 -0.104528
    outer loop
      vertex 6.82391 9.05 21.0645
      vertex 6.79205 -8.74687 21.3676
      vertex 6.79205 8.74687 21.3676
    endloop
  endfacet
  facet normal -0.994522 0 -0.104528
    outer loop
      vertex 6.79205 -8.74687 21.3676
      vertex 6.82391 9.05 21.0645
      vertex 6.82391 -9.05 21.0645
    endloop
  endfacet
  facet normal -0.994522 0 -0.104528
    outer loop
      vertex 8.38624 -9.05 6.2
      vertex 6.82391 9.05 21.0645
      vertex 8.38624 9.05 6.2
    endloop
  endfacet
  facet normal -0.994522 -0 -0.104528
    outer loop
      vertex 6.82391 9.05 21.0645
      vertex 8.38624 -9.05 6.2
      vertex 6.82391 -9.05 21.0645
    endloop
  endfacet
  facet normal 0.994522 0 -0.104528
    outer loop
      vertex -6.82391 -9.05 21.0645
      vertex -8.38624 9.05 6.2
      vertex -6.82391 9.05 21.0645
    endloop
  endfacet
  facet normal 0.994522 0 -0.104528
    outer loop
      vertex -8.38624 9.05 6.2
      vertex -6.82391 -9.05 21.0645
      vertex -8.38624 -9.05 6.2
    endloop
  endfacet
  facet normal 0.994522 0 -0.104528
    outer loop
      vertex -6.79205 -8.74687 21.3676
      vertex -6.82391 9.05 21.0645
      vertex -6.79205 8.74687 21.3676
    endloop
  endfacet
  facet normal 0.994522 0 -0.104528
    outer loop
      vertex -6.82391 9.05 21.0645
      vertex -6.79205 -8.74687 21.3676
      vertex -6.82391 -9.05 21.0645
    endloop
  endfacet
  facet normal 0 1 0
    outer loop
      vertex 8.38624 -9.05 6.2
      vertex -6.82391 -9.05 21.0645
      vertex 6.82391 -9.05 21.0645
    endloop
  endfacet
  facet normal 0 1 0
    outer loop
      vertex -6.82391 -9.05 21.0645
      vertex 8.38624 -9.05 6.2
      vertex -8.38624 -9.05 6.2
    endloop
  endfacet
  facet normal -0.669131 0 -0.743145
    outer loop
      vertex 3.90794 -6.15 23.9645
      vertex 6.79205 8.74687 21.3676
      vertex 6.79205 -8.74687 21.3676
    endloop
  endfacet
  facet normal -0.669131 0 -0.743145
    outer loop
      vertex 6.79205 8.74687 21.3676
      vertex 3.90794 -6.15 23.9645
      vertex 3.90794 6.15 23.9645
    endloop
  endfacet
  facet normal 0 -0.707107 -0.707107
    outer loop
      vertex -3.90794 6.15 23.9645
      vertex 6.79205 8.74687 21.3676
      vertex 3.90794 6.15 23.9645
    endloop
  endfacet
  facet normal -0 -0.707107 -0.707107
    outer loop
      vertex 6.79205 8.74687 21.3676
      vertex -3.90794 6.15 23.9645
      vertex -6.79205 8.74687 21.3676
    endloop
  endfacet
  facet normal 0 -0.707107 -0.707107
    outer loop
      vertex -6.82391 9.05 21.0645
      vertex 6.79205 8.74687 21.3676
      vertex -6.79205 8.74687 21.3676
    endloop
  endfacet
  facet normal 0 -0.707107 -0.707107
    outer loop
      vertex 6.79205 8.74687 21.3676
      vertex -6.82391 9.05 21.0645
      vertex 6.82391 9.05 21.0645
    endloop
  endfacet
  facet normal 0.669131 0 -0.743145
    outer loop
      vertex -6.79205 -8.74687 21.3676
      vertex -3.90794 6.15 23.9645
      vertex -3.90794 -6.15 23.9645
    endloop
  endfacet
  facet normal 0.669131 0 -0.743145
    outer loop
      vertex -3.90794 6.15 23.9645
      vertex -6.79205 -8.74687 21.3676
      vertex -6.79205 8.74687 21.3676
    endloop
  endfacet
  facet normal 0 0.707107 -0.707107
    outer loop
      vertex 6.79205 -8.74687 21.3676
      vertex -3.90794 -6.15 23.9645
      vertex 3.90794 -6.15 23.9645
    endloop
  endfacet
  facet normal 0 0.707107 -0.707107
    outer loop
      vertex -3.90794 -6.15 23.9645
      vertex 6.79205 -8.74687 21.3676
      vertex -6.79205 -8.74687 21.3676
    endloop
  endfacet
  facet normal 0 0.707107 -0.707107
    outer loop
      vertex 6.82391 -9.05 21.0645
      vertex -6.79205 -8.74687 21.3676
      vertex 6.79205 -8.74687 21.3676
    endloop
  endfacet
  facet normal 0 0.707107 -0.707107
    outer loop
      vertex -6.79205 -8.74687 21.3676
      vertex 6.82391 -9.05 21.0645
      vertex -6.82391 -9.05 21.0645
    endloop
  endfacet
  facet normal 0 0 -1
    outer loop
      vertex -3.90794 -6.15 23.9645
      vertex 3.90794 6.15 23.9645
      vertex 3.90794 -6.15 23.9645
    endloop
  endfacet
  facet normal -0 0 -1
    outer loop
      vertex 3.90794 6.15 23.9645
      vertex -3.90794 -6.15 23.9645
      vertex -3.90794 6.15 23.9645
    endloop
  endfacet
  facet normal -0 0 1
    outer loop
      vertex -1.85638 9.17 1.2
      vertex 1.59959 5.96999 1.2
      vertex 1.59959 9.17 1.2
    endloop
  endfacet
  facet normal 0 0 1
    outer loop
      vertex 1.59959 5.96999 1.2
      vertex -1.85638 9.17 1.2
      vertex -1.85638 5.96999 1.2
    endloop
  endfacet
  facet normal -0 0 1
    outer loop
      vertex -1.85638 4.24199 1.2
      vertex 1.59959 -8.75 1.2
      vertex 1.59959 4.24199 1.2
    endloop
  endfacet
  facet normal 0 0 1
    outer loop
      vertex 1.59959 -8.75 1.2
      vertex -1.85638 4.24199 1.2
      vertex -1.85638 -8.75 1.2
    endloop
  endfacet
  facet normal 0 0 -1
    outer loop
      vertex -1.85638 9.05 7.2
      vertex 1.59959 9.17 7.2
      vertex 1.59959 9.05 7.2
    endloop
  endfacet
  facet normal -0 0 -1
    outer loop
      vertex 1.59959 9.17 7.2
      vertex -1.85638 9.05 7.2
      vertex -1.85638 9.17 7.2
    endloop
  endfacet
  facet normal 0 -1 0
    outer loop
      vertex -1.85638 9.17 1.2
      vertex 1.59959 9.17 7.2
      vertex -1.85638 9.17 7.2
    endloop
  endfacet
  facet normal 0 -1 -0
    outer loop
      vertex 1.59959 9.17 7.2
      vertex -1.85638 9.17 1.2
      vertex 1.59959 9.17 1.2
    endloop
  endfacet
  facet normal 1 0 0
    outer loop
      vertex -1.85638 9.05 6.2
      vertex -1.85638 9.17 7.2
      vertex -1.85638 9.05 7.2
    endloop
  endfacet
  facet normal 1 0 0
    outer loop
      vertex -1.85638 9.17 7.2
      vertex -1.85638 9.05 6.2
      vertex -1.85638 9.17 1.2
    endloop
  endfacet
  facet normal 1 0 0
    outer loop
      vertex -1.85638 5.96999 1.2
      vertex -1.85638 9.05 6.2
      vertex -1.85638 5.96999 6.2
    endloop
  endfacet
  facet normal 1 0 0
    outer loop
      vertex -1.85638 9.05 6.2
      vertex -1.85638 5.96999 1.2
      vertex -1.85638 9.17 1.2
    endloop
  endfacet
  facet normal 0 1 -0
    outer loop
      vertex 1.59959 5.96999 1.2
      vertex -1.85638 5.96999 6.2
      vertex 1.59959 5.96999 6.2
    endloop
  endfacet
  facet normal 0 1 0
    outer loop
      vertex -1.85638 5.96999 6.2
      vertex 1.59959 5.96999 1.2
      vertex -1.85638 5.96999 1.2
    endloop
  endfacet
  facet normal -1 0 0
    outer loop
      vertex 1.59959 9.17 1.2
      vertex 1.59959 9.05 6.2
      vertex 1.59959 9.17 7.2
    endloop
  endfacet
  facet normal -1 0 0
    outer loop
      vertex 1.59959 5.96999 1.2
      vertex 1.59959 9.05 6.2
      vertex 1.59959 9.17 1.2
    endloop
  endfacet
  facet normal -1 -0 0
    outer loop
      vertex 1.59959 9.05 6.2
      vertex 1.59959 5.96999 1.2
      vertex 1.59959 5.96999 6.2
    endloop
  endfacet
  facet normal -1 -0 0
    outer loop
      vertex 1.59959 9.17 7.2
      vertex 1.59959 9.05 6.2
      vertex 1.59959 9.05 7.2
    endloop
  endfacet
  facet normal 0 -1 0
    outer loop
      vertex -1.85638 4.24199 1.2
      vertex 1.59959 4.24199 6.2
      vertex -1.85638 4.24199 6.2
    endloop
  endfacet
  facet normal 0 -1 -0
    outer loop
      vertex 1.59959 4.24199 6.2
      vertex -1.85638 4.24199 1.2
      vertex 1.59959 4.24199 1.2
    endloop
  endfacet
  facet normal 1 -0 0
    outer loop
      vertex -1.85638 -8.75 6.2
      vertex -1.85638 4.24199 1.2
      vertex -1.85638 4.24199 6.2
    endloop
  endfacet
  facet normal 1 0 0
    outer loop
      vertex -1.85638 4.24199 1.2
      vertex -1.85638 -8.75 6.2
      vertex -1.85638 -8.75 1.2
    endloop
  endfacet
  facet normal 0 1 -0
    outer loop
      vertex 1.59959 -8.75 1.2
      vertex -1.85638 -8.75 6.2
      vertex 1.59959 -8.75 6.2
    endloop
  endfacet
  facet normal 0 1 0
    outer loop
      vertex -1.85638 -8.75 6.2
      vertex 1.59959 -8.75 1.2
      vertex -1.85638 -8.75 1.2
    endloop
  endfacet
  facet normal -1 0 0
    outer loop
      vertex 1.59959 -8.75 1.2
      vertex 1.59959 4.24199 6.2
      vertex 1.59959 4.24199 1.2
    endloop
  endfacet
  facet normal -1 -0 0
    outer loop
      vertex 1.59959 4.24199 6.2
      vertex 1.59959 -8.75 1.2
      vertex 1.59959 -8.75 6.2
    endloop
  endfacet
endsolid OpenSCAD_Model
