solid OpenSCAD_Model
  facet normal 0.994522 0 0.104528
    outer loop
      vertex 11.25 -11.25 0
      vertex 10.7088 -10.25 5.14877
      vertex 10.7088 -11.25 5.14877
    endloop
  endfacet
  facet normal 0.994522 0 0.104528
    outer loop
      vertex 10.7088 -10.25 5.14877
      vertex 11.25 -11.25 0
      vertex 11.25 11.25 0
    endloop
  endfacet
  facet normal 0.994522 0 0.104529
    outer loop
      vertex 11.25 11.25 0
      vertex 11.0388 11.25 2.00949
      vertex 11.0388 10.25 2.00949
    endloop
  endfacet
  facet normal 0.994522 0 0.104528
    outer loop
      vertex 11.0388 10.25 2.00949
      vertex 8.5 10.25 26.1645
      vertex 8.5 -10.25 26.1645
    endloop
  endfacet
  facet normal 0.994522 -1.76685e-09 0.104528
    outer loop
      vertex 10.7088 -10.25 5.14877
      vertex 11.0388 10.25 2.00949
      vertex 8.5 -10.25 26.1645
    endloop
  endfacet
  facet normal 0.994522 8.60573e-09 0.104529
    outer loop
      vertex 11.25 11.25 0
      vertex 11.0388 10.25 2.00949
      vertex 10.7088 -10.25 5.14877
    endloop
  endfacet
  facet normal -0.994522 0 0.104528
    outer loop
      vertex -11.25 -11.25 0
      vertex -10.7088 -10.25 5.14877
      vertex -11.25 11.25 0
    endloop
  endfacet
  facet normal -0.994522 0 0.104528
    outer loop
      vertex -10.7088 -10.25 5.14877
      vertex -11.25 -11.25 0
      vertex -10.7088 -11.25 5.14877
    endloop
  endfacet
  facet normal -0.994522 0 0.104529
    outer loop
      vertex -11.0388 10.25 2.00949
      vertex -11.0388 11.25 2.00949
      vertex -11.25 11.25 0
    endloop
  endfacet
  facet normal -0.994522 8.60573e-09 0.104529
    outer loop
      vertex -10.7088 -10.25 5.14877
      vertex -11.0388 10.25 2.00949
      vertex -11.25 11.25 0
    endloop
  endfacet
  facet normal -0.994522 -1.53723e-09 0.104528
    outer loop
      vertex -10.7088 -10.25 5.14877
      vertex -8.5 10.25 26.1645
      vertex -11.0388 10.25 2.00949
    endloop
  endfacet
  facet normal -0.994522 0 0.104528
    outer loop
      vertex -8.5 -10.25 26.1645
      vertex -8.5 10.25 26.1645
      vertex -10.7088 -10.25 5.14877
    endloop
  endfacet
  facet normal -0 0 1
    outer loop
      vertex 2.75 -3.63971 26.1645
      vertex 8.5 -10.25 26.1645
      vertex 2.75 3.63971 26.1645
    endloop
  endfacet
  facet normal 0 0 1
    outer loop
      vertex 3 5 26.1645
      vertex -2.75 3.63971 26.1645
      vertex 2.75 3.63971 26.1645
    endloop
  endfacet
  facet normal 0 0 1
    outer loop
      vertex -2.75 3.63971 26.1645
      vertex -3 5 26.1645
      vertex -2.75 -3.63971 26.1645
    endloop
  endfacet
  facet normal -0 0 1
    outer loop
      vertex -3 5 26.1645
      vertex -2.75 3.63971 26.1645
      vertex 3 5 26.1645
    endloop
  endfacet
  facet normal 0 0 1
    outer loop
      vertex 3 5 26.1645
      vertex 8.5 10.25 26.1645
      vertex 3 7 26.1645
    endloop
  endfacet
  facet normal 0 0 1
    outer loop
      vertex 8.5 10.25 26.1645
      vertex -3 7 26.1645
      vertex 3 7 26.1645
    endloop
  endfacet
  facet normal 0 0 1
    outer loop
      vertex -8.5 10.25 26.1645
      vertex -3 5 26.1645
      vertex -3 7 26.1645
    endloop
  endfacet
  facet normal 0 0 1
    outer loop
      vertex -3 5 26.1645
      vertex -8.5 10.25 26.1645
      vertex -3 -5 26.1645
    endloop
  endfacet
  facet normal 0 0 1
    outer loop
      vertex -8.5 -10.25 26.1645
      vertex -3 -5 26.1645
      vertex -8.5 10.25 26.1645
    endloop
  endfacet
  facet normal -0 0 1
    outer loop
      vertex -8.5 10.25 26.1645
      vertex -3 7 26.1645
      vertex 8.5 10.25 26.1645
    endloop
  endfacet
  facet normal 0 0 1
    outer loop
      vertex 2.75 3.63971 26.1645
      vertex 8.5 10.25 26.1645
      vertex 3 5 26.1645
    endloop
  endfacet
  facet normal 0 0 1
    outer loop
      vertex 8.5 10.25 26.1645
      vertex 2.75 3.63971 26.1645
      vertex 8.5 -10.25 26.1645
    endloop
  endfacet
  facet normal -0 0 1
    outer loop
      vertex 3 -7 26.1645
      vertex 8.5 -10.25 26.1645
      vertex 3 -5 26.1645
    endloop
  endfacet
  facet normal -0 0 1
    outer loop
      vertex -3 -7 26.1645
      vertex 8.5 -10.25 26.1645
      vertex 3 -7 26.1645
    endloop
  endfacet
  facet normal 0 0 1
    outer loop
      vertex -3 -7 26.1645
      vertex -8.5 -10.25 26.1645
      vertex 8.5 -10.25 26.1645
    endloop
  endfacet
  facet normal 0 0 1
    outer loop
      vertex -3 -5 26.1645
      vertex -8.5 -10.25 26.1645
      vertex -3 -7 26.1645
    endloop
  endfacet
  facet normal 0 0 1
    outer loop
      vertex 8.5 -10.25 26.1645
      vertex 2.75 -3.63971 26.1645
      vertex 3 -5 26.1645
    endloop
  endfacet
  facet normal -0 0 1
    outer loop
      vertex -2.75 -3.63971 26.1645
      vertex 3 -5 26.1645
      vertex 2.75 -3.63971 26.1645
    endloop
  endfacet
  facet normal 0 0 1
    outer loop
      vertex -2.75 -3.63971 26.1645
      vertex -3 -5 26.1645
      vertex 3 -5 26.1645
    endloop
  endfacet
  facet normal 0 0 1
    outer loop
      vertex -3 -5 26.1645
      vertex -2.75 -3.63971 26.1645
      vertex -3 5 26.1645
    endloop
  endfacet
  facet normal -1 0 0
    outer loop
      vertex 2.75 -3.63971 24.1645
      vertex 2.75 3.63971 26.1645
      vertex 2.75 3.63971 24.1645
    endloop
  endfacet
  facet normal -1 -0 0
    outer loop
      vertex 2.75 3.63971 26.1645
      vertex 2.75 -3.63971 24.1645
      vertex 2.75 -3.63971 26.1645
    endloop
  endfacet
  facet normal 0 1 -0
    outer loop
      vertex 2.75 -3.63971 24.1645
      vertex -2.75 -3.63971 26.1645
      vertex 2.75 -3.63971 26.1645
    endloop
  endfacet
  facet normal 0 1 0
    outer loop
      vertex -2.75 -3.63971 26.1645
      vertex 2.75 -3.63971 24.1645
      vertex -2.75 -3.63971 24.1645
    endloop
  endfacet
  facet normal 1 -0 0
    outer loop
      vertex -2.75 -3.63971 26.1645
      vertex -2.75 3.63971 24.1645
      vertex -2.75 3.63971 26.1645
    endloop
  endfacet
  facet normal 1 0 0
    outer loop
      vertex -2.75 3.63971 24.1645
      vertex -2.75 -3.63971 26.1645
      vertex -2.75 -3.63971 24.1645
    endloop
  endfacet
  facet normal 0 -1 0
    outer loop
      vertex -2.75 3.63971 24.1645
      vertex 2.75 3.63971 26.1645
      vertex -2.75 3.63971 26.1645
    endloop
  endfacet
  facet normal 0 -1 -0
    outer loop
      vertex 2.75 3.63971 26.1645
      vertex -2.75 3.63971 24.1645
      vertex 2.75 3.63971 24.1645
    endloop
  endfacet
  facet normal 0 0 -1
    outer loop
      vertex -11.25 -11.25 0
      vertex 11.25 11.25 0
      vertex 11.25 -11.25 0
    endloop
  endfacet
  facet normal -0 0 -1
    outer loop
      vertex 11.25 11.25 0
      vertex -11.25 -11.25 0
      vertex -11.25 11.25 0
    endloop
  endfacet
  facet normal 0 -1 -0
    outer loop
      vertex -2.14553 -11.25 4.61001
      vertex -11.25 -11.25 0
      vertex 2.14553 -11.25 4.61001
    endloop
  endfacet
  facet normal 0 -1 -0
    outer loop
      vertex -6.43283 -11.25 4.7897
      vertex -11.25 -11.25 0
      vertex -2.14553 -11.25 4.61001
    endloop
  endfacet
  facet normal 0 -1 0
    outer loop
      vertex -11.25 -11.25 0
      vertex -6.43283 -11.25 4.7897
      vertex -10.7088 -11.25 5.14877
    endloop
  endfacet
  facet normal 0 -1 0
    outer loop
      vertex 11.25 -11.25 0
      vertex 2.14553 -11.25 4.61001
      vertex -11.25 -11.25 0
    endloop
  endfacet
  facet normal 0 -1 0
    outer loop
      vertex 2.14553 -11.25 4.61001
      vertex 11.25 -11.25 0
      vertex 6.43283 -11.25 4.7897
    endloop
  endfacet
  facet normal 0 -1 0
    outer loop
      vertex 6.43283 -11.25 4.7897
      vertex 11.25 -11.25 0
      vertex 10.7088 -11.25 5.14877
    endloop
  endfacet
  facet normal 0 1 0
    outer loop
      vertex 2.21164 11.25 1.45414
      vertex 11.25 11.25 0
      vertex -2.21164 11.25 1.45414
    endloop
  endfacet
  facet normal 0 1 0
    outer loop
      vertex 6.63103 11.25 1.63936
      vertex 11.25 11.25 0
      vertex 2.21164 11.25 1.45414
    endloop
  endfacet
  facet normal 0 1 0
    outer loop
      vertex 11.25 11.25 0
      vertex 6.63103 11.25 1.63936
      vertex 11.0388 11.25 2.00949
    endloop
  endfacet
  facet normal 0 1 0
    outer loop
      vertex -11.25 11.25 0
      vertex -2.21164 11.25 1.45414
      vertex 11.25 11.25 0
    endloop
  endfacet
  facet normal 0 1 0
    outer loop
      vertex -2.21164 11.25 1.45414
      vertex -11.25 11.25 0
      vertex -6.63103 11.25 1.63936
    endloop
  endfacet
  facet normal 0 1 0
    outer loop
      vertex -6.63103 11.25 1.63936
      vertex -11.25 11.25 0
      vertex -11.0388 11.25 2.00949
    endloop
  endfacet
  facet normal 0 0.984808 -0.173648
    outer loop
      vertex 3 7 26.1645
      vertex -3.52898 7.52898 29.1645
      vertex 3.52898 7.52898 29.1645
    endloop
  endfacet
  facet normal 0 0.984808 -0.173648
    outer loop
      vertex -3.52898 7.52898 29.1645
      vertex 3 7 26.1645
      vertex -3 7 26.1645
    endloop
  endfacet
  facet normal -0.984808 0 -0.173648
    outer loop
      vertex -3.52898 5 29.1645
      vertex -3 7 26.1645
      vertex -3 5 26.1645
    endloop
  endfacet
  facet normal -0.984808 0 -0.173648
    outer loop
      vertex -3 7 26.1645
      vertex -3.52898 5 29.1645
      vertex -3.52898 7.52898 29.1645
    endloop
  endfacet
  facet normal 0 -1 0
    outer loop
      vertex -3 5 26.1645
      vertex 3.52898 5 29.1645
      vertex -3.52898 5 29.1645
    endloop
  endfacet
  facet normal 0 -1 0
    outer loop
      vertex 3.52898 5 29.1645
      vertex -3 5 26.1645
      vertex 3 5 26.1645
    endloop
  endfacet
  facet normal 0.984808 0 -0.173648
    outer loop
      vertex 3.52898 5 29.1645
      vertex 3 7 26.1645
      vertex 3.52898 7.52898 29.1645
    endloop
  endfacet
  facet normal 0.984808 0 -0.173648
    outer loop
      vertex 3 7 26.1645
      vertex 3.52898 5 29.1645
      vertex 3 5 26.1645
    endloop
  endfacet
  facet normal -0 0 1
    outer loop
      vertex -3.52898 7.52898 29.1645
      vertex 3.52898 5 29.1645
      vertex 3.52898 7.52898 29.1645
    endloop
  endfacet
  facet normal 0 0 1
    outer loop
      vertex 3.52898 5 29.1645
      vertex -3.52898 7.52898 29.1645
      vertex -3.52898 5 29.1645
    endloop
  endfacet
  facet normal 0 1 -0
    outer loop
      vertex 3 -5 26.1645
      vertex -3.52898 -5 29.1645
      vertex 3.52898 -5 29.1645
    endloop
  endfacet
  facet normal 0 1 0
    outer loop
      vertex -3.52898 -5 29.1645
      vertex 3 -5 26.1645
      vertex -3 -5 26.1645
    endloop
  endfacet
  facet normal -0.984808 0 -0.173648
    outer loop
      vertex -3 -7 26.1645
      vertex -3.52898 -5 29.1645
      vertex -3 -5 26.1645
    endloop
  endfacet
  facet normal -0.984808 -0 -0.173648
    outer loop
      vertex -3.52898 -5 29.1645
      vertex -3 -7 26.1645
      vertex -3.52898 -7.52898 29.1645
    endloop
  endfacet
  facet normal 0 -0.984808 -0.173648
    outer loop
      vertex -3 -7 26.1645
      vertex 3.52898 -7.52898 29.1645
      vertex -3.52898 -7.52898 29.1645
    endloop
  endfacet
  facet normal 0 -0.984808 -0.173648
    outer loop
      vertex 3.52898 -7.52898 29.1645
      vertex -3 -7 26.1645
      vertex 3 -7 26.1645
    endloop
  endfacet
  facet normal 0.984808 0 -0.173648
    outer loop
      vertex 3.52898 -5 29.1645
      vertex 3 -7 26.1645
      vertex 3 -5 26.1645
    endloop
  endfacet
  facet normal 0.984808 0 -0.173648
    outer loop
      vertex 3 -7 26.1645
      vertex 3.52898 -5 29.1645
      vertex 3.52898 -7.52898 29.1645
    endloop
  endfacet
  facet normal -0 0 1
    outer loop
      vertex -3.52898 -5 29.1645
      vertex 3.52898 -7.52898 29.1645
      vertex 3.52898 -5 29.1645
    endloop
  endfacet
  facet normal 0 0 1
    outer loop
      vertex 3.52898 -7.52898 29.1645
      vertex -3.52898 -5 29.1645
      vertex -3.52898 -7.52898 29.1645
    endloop
  endfacet
  facet normal -0 0 1
    outer loop
      vertex -2.75 3.63971 24.1645
      vertex 2.75 -3.63971 24.1645
      vertex 2.75 3.63971 24.1645
    endloop
  endfacet
  facet normal 0 0 1
    outer loop
      vertex 2.75 -3.63971 24.1645
      vertex -2.75 3.63971 24.1645
      vertex -2.75 -3.63971 24.1645
    endloop
  endfacet
  facet normal -0.0836779 0 0.996493
    outer loop
      vertex 6.63103 11.25 1.63936
      vertex 11.0388 10.25 2.00949
      vertex 11.0388 11.25 2.00949
    endloop
  endfacet
  facet normal -0.0836779 0 0.996493
    outer loop
      vertex 11.0388 10.25 2.00949
      vertex 6.63103 11.25 1.63936
      vertex 6.63103 10.25 1.63936
    endloop
  endfacet
  facet normal -0.0418756 0 0.999123
    outer loop
      vertex 2.21164 11.25 1.45414
      vertex 6.63103 10.25 1.63936
      vertex 6.63103 11.25 1.63936
    endloop
  endfacet
  facet normal -0.0418756 0 0.999123
    outer loop
      vertex 6.63103 10.25 1.63936
      vertex 2.21164 11.25 1.45414
      vertex 2.21164 10.25 1.45414
    endloop
  endfacet
  facet normal -0 0 1
    outer loop
      vertex -2.21164 11.25 1.45414
      vertex 2.21164 10.25 1.45414
      vertex 2.21164 11.25 1.45414
    endloop
  endfacet
  facet normal 0 0 1
    outer loop
      vertex 2.21164 10.25 1.45414
      vertex -2.21164 11.25 1.45414
      vertex -2.21164 10.25 1.45414
    endloop
  endfacet
  facet normal 0.0418756 0 0.999123
    outer loop
      vertex -6.63103 11.25 1.63936
      vertex -2.21164 10.25 1.45414
      vertex -2.21164 11.25 1.45414
    endloop
  endfacet
  facet normal 0.0418756 0 0.999123
    outer loop
      vertex -2.21164 10.25 1.45414
      vertex -6.63103 11.25 1.63936
      vertex -6.63103 10.25 1.63936
    endloop
  endfacet
  facet normal 0.0836779 0 0.996493
    outer loop
      vertex -11.0388 11.25 2.00949
      vertex -6.63103 10.25 1.63936
      vertex -6.63103 11.25 1.63936
    endloop
  endfacet
  facet normal 0.0836779 0 0.996493
    outer loop
      vertex -6.63103 10.25 1.63936
      vertex -11.0388 11.25 2.00949
      vertex -11.0388 10.25 2.00949
    endloop
  endfacet
  facet normal 0 1 0
    outer loop
      vertex 6.63103 10.25 1.63936
      vertex 8.5 10.25 26.1645
      vertex 11.0388 10.25 2.00949
    endloop
  endfacet
  facet normal 0 1 0
    outer loop
      vertex 2.21164 10.25 1.45414
      vertex 8.5 10.25 26.1645
      vertex 6.63103 10.25 1.63936
    endloop
  endfacet
  facet normal 0 1 0
    outer loop
      vertex 8.5 10.25 26.1645
      vertex 2.21164 10.25 1.45414
      vertex -8.5 10.25 26.1645
    endloop
  endfacet
  facet normal 0 1 0
    outer loop
      vertex -8.5 10.25 26.1645
      vertex -6.63103 10.25 1.63936
      vertex -11.0388 10.25 2.00949
    endloop
  endfacet
  facet normal 0 1 -0
    outer loop
      vertex -2.21164 10.25 1.45414
      vertex -8.5 10.25 26.1645
      vertex 2.21164 10.25 1.45414
    endloop
  endfacet
  facet normal 0 1 0
    outer loop
      vertex -8.5 10.25 26.1645
      vertex -2.21164 10.25 1.45414
      vertex -6.63103 10.25 1.63936
    endloop
  endfacet
  facet normal 0.0836779 0 0.996493
    outer loop
      vertex -10.7088 -10.25 5.14877
      vertex -6.43283 -11.25 4.7897
      vertex -6.43283 -10.25 4.7897
    endloop
  endfacet
  facet normal 0.0836779 0 0.996493
    outer loop
      vertex -6.43283 -11.25 4.7897
      vertex -10.7088 -10.25 5.14877
      vertex -10.7088 -11.25 5.14877
    endloop
  endfacet
  facet normal 0.0418757 0 0.999123
    outer loop
      vertex -6.43283 -10.25 4.7897
      vertex -2.14553 -11.25 4.61001
      vertex -2.14553 -10.25 4.61001
    endloop
  endfacet
  facet normal 0.0418757 0 0.999123
    outer loop
      vertex -2.14553 -11.25 4.61001
      vertex -6.43283 -10.25 4.7897
      vertex -6.43283 -11.25 4.7897
    endloop
  endfacet
  facet normal -0 0 1
    outer loop
      vertex -2.14553 -10.25 4.61001
      vertex 2.14553 -11.25 4.61001
      vertex 2.14553 -10.25 4.61001
    endloop
  endfacet
  facet normal 0 0 1
    outer loop
      vertex 2.14553 -11.25 4.61001
      vertex -2.14553 -10.25 4.61001
      vertex -2.14553 -11.25 4.61001
    endloop
  endfacet
  facet normal -0.0418757 0 0.999123
    outer loop
      vertex 2.14553 -10.25 4.61001
      vertex 6.43283 -11.25 4.7897
      vertex 6.43283 -10.25 4.7897
    endloop
  endfacet
  facet normal -0.0418757 0 0.999123
    outer loop
      vertex 6.43283 -11.25 4.7897
      vertex 2.14553 -10.25 4.61001
      vertex 2.14553 -11.25 4.61001
    endloop
  endfacet
  facet normal -0.0836779 0 0.996493
    outer loop
      vertex 6.43283 -10.25 4.7897
      vertex 10.7088 -11.25 5.14877
      vertex 10.7088 -10.25 5.14877
    endloop
  endfacet
  facet normal -0.0836779 0 0.996493
    outer loop
      vertex 10.7088 -11.25 5.14877
      vertex 6.43283 -10.25 4.7897
      vertex 6.43283 -11.25 4.7897
    endloop
  endfacet
  facet normal 0 -1 0
    outer loop
      vertex -6.43283 -10.25 4.7897
      vertex -8.5 -10.25 26.1645
      vertex -10.7088 -10.25 5.14877
    endloop
  endfacet
  facet normal 0 -1 0
    outer loop
      vertex -2.14553 -10.25 4.61001
      vertex -8.5 -10.25 26.1645
      vertex -6.43283 -10.25 4.7897
    endloop
  endfacet
  facet normal 0 -1 0
    outer loop
      vertex -8.5 -10.25 26.1645
      vertex -2.14553 -10.25 4.61001
      vertex 8.5 -10.25 26.1645
    endloop
  endfacet
  facet normal 0 -1 -0
    outer loop
      vertex 8.5 -10.25 26.1645
      vertex 6.43283 -10.25 4.7897
      vertex 10.7088 -10.25 5.14877
    endloop
  endfacet
  facet normal 0 -1 0
    outer loop
      vertex 2.14553 -10.25 4.61001
      vertex 8.5 -10.25 26.1645
      vertex -2.14553 -10.25 4.61001
    endloop
  endfacet
  facet normal 0 -1 0
    outer loop
      vertex 8.5 -10.25 26.1645
      vertex 2.14553 -10.25 4.61001
      vertex 6.43283 -10.25 4.7897
    endloop
  endfacet
  facet normal 0 0 1
    outer loop
      vertex 8.38624 9.05 6.2
      vertex 6.62906 6.64824 6.2
      vertex 8.38624 -9.05 6.2
    endloop
  endfacet
  facet normal 0 0 1
    outer loop
      vertex 8.38624 9.05 6.2
      vertex 2.98105 6.64824 6.2
      vertex 6.62906 6.64824 6.2
    endloop
  endfacet
  facet normal 0 0 1
    outer loop
      vertex 0.550049 0.0172424 6.2
      vertex -0.277863 -1.81068 6.2
      vertex -0.154922 -2.19675 6.2
    endloop
  endfacet
  facet normal 0 0 1
    outer loop
      vertex -0.848923 0.0172424 6.2
      vertex 0.550049 0.0172424 6.2
      vertex 2.98105 6.64824 6.2
    endloop
  endfacet
  facet normal 0 0 1
    outer loop
      vertex 0.550049 0.0172424 6.2
      vertex -0.375687 -1.49649 6.2
      vertex -0.277863 -1.81068 6.2
    endloop
  endfacet
  facet normal 0 0 1
    outer loop
      vertex 0.550049 0.0172424 6.2
      vertex -0.448364 -1.25418 6.2
      vertex -0.375687 -1.49649 6.2
    endloop
  endfacet
  facet normal 0 0 1
    outer loop
      vertex 0.550049 0.0172424 6.2
      vertex -0.495926 -1.08374 6.2
      vertex -0.448364 -1.25418 6.2
    endloop
  endfacet
  facet normal 0 0 1
    outer loop
      vertex 0.550049 0.0172424 6.2
      vertex -0.579865 -0.808304 6.2
      vertex -0.495926 -1.08374 6.2
    endloop
  endfacet
  facet normal 0 0 1
    outer loop
      vertex 0.550049 0.0172424 6.2
      vertex -0.666687 -0.53299 6.2
      vertex -0.579865 -0.808304 6.2
    endloop
  endfacet
  facet normal 0 0 1
    outer loop
      vertex 0.550049 0.0172424 6.2
      vertex -0.756363 -0.257812 6.2
      vertex -0.666687 -0.53299 6.2
    endloop
  endfacet
  facet normal 0 0 1
    outer loop
      vertex 0.550049 0.0172424 6.2
      vertex -0.848923 0.0172424 6.2
      vertex -0.756363 -0.257812 6.2
    endloop
  endfacet
  facet normal 0 0 1
    outer loop
      vertex 2.98105 6.64824 6.2
      vertex -3.22693 6.64824 6.2
      vertex -0.848923 0.0172424 6.2
    endloop
  endfacet
  facet normal -0 0 1
    outer loop
      vertex -8.38624 9.05 6.2
      vertex 2.98105 6.64824 6.2
      vertex 8.38624 9.05 6.2
    endloop
  endfacet
  facet normal 0 0 1
    outer loop
      vertex 2.98105 6.64824 6.2
      vertex -8.38624 9.05 6.2
      vertex -3.22693 6.64824 6.2
    endloop
  endfacet
  facet normal 0 0 1
    outer loop
      vertex -3.22693 6.64824 6.2
      vertex -8.38624 9.05 6.2
      vertex -6.87492 6.64824 6.2
    endloop
  endfacet
  facet normal -0 0 1
    outer loop
      vertex 1.38905 -6.34375 6.2
      vertex 8.38624 -9.05 6.2
      vertex 6.62906 6.64824 6.2
    endloop
  endfacet
  facet normal 0 0 1
    outer loop
      vertex -8.38624 -9.05 6.2
      vertex 1.38905 -6.34375 6.2
      vertex -1.70793 -6.34375 6.2
    endloop
  endfacet
  facet normal 0 0 1
    outer loop
      vertex -8.38624 -9.05 6.2
      vertex -6.87492 6.64824 6.2
      vertex -8.38624 9.05 6.2
    endloop
  endfacet
  facet normal 0 0 1
    outer loop
      vertex 1.38905 -6.34375 6.2
      vertex -8.38624 -9.05 6.2
      vertex 8.38624 -9.05 6.2
    endloop
  endfacet
  facet normal 0 0 1
    outer loop
      vertex -6.87492 6.64824 6.2
      vertex -8.38624 -9.05 6.2
      vertex -1.70793 -6.34375 6.2
    endloop
  endfacet
  facet normal 0 -1 0
    outer loop
      vertex -8.38624 9.05 6.2
      vertex 6.82391 9.05 21.0645
      vertex -6.82391 9.05 21.0645
    endloop
  endfacet
  facet normal 0 -1 -0
    outer loop
      vertex 6.82391 9.05 21.0645
      vertex -8.38624 9.05 6.2
      vertex 8.38624 9.05 6.2
    endloop
  endfacet
  facet normal -0.994522 0 -0.104528
    outer loop
      vertex 6.82391 9.05 21.0645
      vertex 6.79205 -8.74687 21.3676
      vertex 6.79205 8.74687 21.3676
    endloop
  endfacet
  facet normal -0.994522 0 -0.104528
    outer loop
      vertex 6.79205 -8.74687 21.3676
      vertex 6.82391 9.05 21.0645
      vertex 6.82391 -9.05 21.0645
    endloop
  endfacet
  facet normal -0.994522 0 -0.104528
    outer loop
      vertex 8.38624 -9.05 6.2
      vertex 6.82391 9.05 21.0645
      vertex 8.38624 9.05 6.2
    endloop
  endfacet
  facet normal -0.994522 -0 -0.104528
    outer loop
      vertex 6.82391 9.05 21.0645
      vertex 8.38624 -9.05 6.2
      vertex 6.82391 -9.05 21.0645
    endloop
  endfacet
  facet normal 0.994522 0 -0.104528
    outer loop
      vertex -6.82391 -9.05 21.0645
      vertex -8.38624 9.05 6.2
      vertex -6.82391 9.05 21.0645
    endloop
  endfacet
  facet normal 0.994522 0 -0.104528
    outer loop
      vertex -8.38624 9.05 6.2
      vertex -6.82391 -9.05 21.0645
      vertex -8.38624 -9.05 6.2
    endloop
  endfacet
  facet normal 0.994522 0 -0.104528
    outer loop
      vertex -6.79205 -8.74687 21.3676
      vertex -6.82391 9.05 21.0645
      vertex -6.79205 8.74687 21.3676
    endloop
  endfacet
  facet normal 0.994522 0 -0.104528
    outer loop
      vertex -6.82391 9.05 21.0645
      vertex -6.79205 -8.74687 21.3676
      vertex -6.82391 -9.05 21.0645
    endloop
  endfacet
  facet normal 0 1 0
    outer loop
      vertex 8.38624 -9.05 6.2
      vertex -6.82391 -9.05 21.0645
      vertex 6.82391 -9.05 21.0645
    endloop
  endfacet
  facet normal 0 1 0
    outer loop
      vertex -6.82391 -9.05 21.0645
      vertex 8.38624 -9.05 6.2
      vertex -8.38624 -9.05 6.2
    endloop
  endfacet
  facet normal -0.669131 0 -0.743145
    outer loop
      vertex 3.90794 -6.15 23.9645
      vertex 6.79205 8.74687 21.3676
      vertex 6.79205 -8.74687 21.3676
    endloop
  endfacet
  facet normal -0.669131 0 -0.743145
    outer loop
      vertex 6.79205 8.74687 21.3676
      vertex 3.90794 -6.15 23.9645
      vertex 3.90794 6.15 23.9645
    endloop
  endfacet
  facet normal 0 -0.707107 -0.707107
    outer loop
      vertex -3.90794 6.15 23.9645
      vertex 6.79205 8.74687 21.3676
      vertex 3.90794 6.15 23.9645
    endloop
  endfacet
  facet normal -0 -0.707107 -0.707107
    outer loop
      vertex 6.79205 8.74687 21.3676
      vertex -3.90794 6.15 23.9645
      vertex -6.79205 8.74687 21.3676
    endloop
  endfacet
  facet normal 0 -0.707107 -0.707107
    outer loop
      vertex -6.82391 9.05 21.0645
      vertex 6.79205 8.74687 21.3676
      vertex -6.79205 8.74687 21.3676
    endloop
  endfacet
  facet normal 0 -0.707107 -0.707107
    outer loop
      vertex 6.79205 8.74687 21.3676
      vertex -6.82391 9.05 21.0645
      vertex 6.82391 9.05 21.0645
    endloop
  endfacet
  facet normal 0.669131 0 -0.743145
    outer loop
      vertex -6.79205 -8.74687 21.3676
      vertex -3.90794 6.15 23.9645
      vertex -3.90794 -6.15 23.9645
    endloop
  endfacet
  facet normal 0.669131 0 -0.743145
    outer loop
      vertex -3.90794 6.15 23.9645
      vertex -6.79205 -8.74687 21.3676
      vertex -6.79205 8.74687 21.3676
    endloop
  endfacet
  facet normal 0 0.707107 -0.707107
    outer loop
      vertex 6.79205 -8.74687 21.3676
      vertex -3.90794 -6.15 23.9645
      vertex 3.90794 -6.15 23.9645
    endloop
  endfacet
  facet normal 0 0.707107 -0.707107
    outer loop
      vertex -3.90794 -6.15 23.9645
      vertex 6.79205 -8.74687 21.3676
      vertex -6.79205 -8.74687 21.3676
    endloop
  endfacet
  facet normal 0 0.707107 -0.707107
    outer loop
      vertex 6.82391 -9.05 21.0645
      vertex -6.79205 -8.74687 21.3676
      vertex 6.79205 -8.74687 21.3676
    endloop
  endfacet
  facet normal 0 0.707107 -0.707107
    outer loop
      vertex -6.79205 -8.74687 21.3676
      vertex 6.82391 -9.05 21.0645
      vertex -6.82391 -9.05 21.0645
    endloop
  endfacet
  facet normal 0 0 -1
    outer loop
      vertex -3.90794 -6.15 23.9645
      vertex 3.90794 6.15 23.9645
      vertex 3.90794 -6.15 23.9645
    endloop
  endfacet
  facet normal -0 0 -1
    outer loop
      vertex 3.90794 6.15 23.9645
      vertex -3.90794 -6.15 23.9645
      vertex -3.90794 6.15 23.9645
    endloop
  endfacet
  facet normal 0 0 1
    outer loop
      vertex 0.550049 0.0172424 1.2
      vertex 6.62906 6.64824 1.2
      vertex 2.98105 6.64824 1.2
    endloop
  endfacet
  facet normal 0 0 1
    outer loop
      vertex 6.62906 6.64824 1.2
      vertex 0.550049 0.0172424 1.2
      vertex 1.38905 -6.34375 1.2
    endloop
  endfacet
  facet normal -0 0 1
    outer loop
      vertex -0.154922 -2.19675 1.2
      vertex 1.38905 -6.34375 1.2
      vertex 0.550049 0.0172424 1.2
    endloop
  endfacet
  facet normal 0 0 1
    outer loop
      vertex -1.70793 -6.34375 1.2
      vertex -0.495926 -1.08374 1.2
      vertex -0.579865 -0.808304 1.2
    endloop
  endfacet
  facet normal 0 0 1
    outer loop
      vertex -1.70793 -6.34375 1.2
      vertex -0.579865 -0.808304 1.2
      vertex -0.666687 -0.53299 1.2
    endloop
  endfacet
  facet normal 0 0 1
    outer loop
      vertex -0.495926 -1.08374 1.2
      vertex -1.70793 -6.34375 1.2
      vertex -0.448364 -1.25418 1.2
    endloop
  endfacet
  facet normal 0 0 1
    outer loop
      vertex -1.70793 -6.34375 1.2
      vertex -0.666687 -0.53299 1.2
      vertex -0.756363 -0.257812 1.2
    endloop
  endfacet
  facet normal 0 0 1
    outer loop
      vertex -1.70793 -6.34375 1.2
      vertex -0.756363 -0.257812 1.2
      vertex -0.848923 0.0172424 1.2
    endloop
  endfacet
  facet normal 0 0 1
    outer loop
      vertex -0.448364 -1.25418 1.2
      vertex -1.70793 -6.34375 1.2
      vertex -0.375687 -1.49649 1.2
    endloop
  endfacet
  facet normal 0 0 1
    outer loop
      vertex -0.154922 -2.19675 1.2
      vertex -1.70793 -6.34375 1.2
      vertex 1.38905 -6.34375 1.2
    endloop
  endfacet
  facet normal 0 0 1
    outer loop
      vertex -0.277863 -1.81068 1.2
      vertex -1.70793 -6.34375 1.2
      vertex -0.154922 -2.19675 1.2
    endloop
  endfacet
  facet normal 0 0 1
    outer loop
      vertex -0.375687 -1.49649 1.2
      vertex -1.70793 -6.34375 1.2
      vertex -0.277863 -1.81068 1.2
    endloop
  endfacet
  facet normal -0 0 1
    outer loop
      vertex -6.87492 6.64824 1.2
      vertex -0.848923 0.0172424 1.2
      vertex -3.22693 6.64824 1.2
    endloop
  endfacet
  facet normal 0 0 1
    outer loop
      vertex -0.848923 0.0172424 1.2
      vertex -6.87492 6.64824 1.2
      vertex -1.70793 -6.34375 1.2
    endloop
  endfacet
  facet normal 0 -1 0
    outer loop
      vertex 2.98105 6.64824 1.2
      vertex 6.62906 6.64824 6.2
      vertex 2.98105 6.64824 6.2
    endloop
  endfacet
  facet normal 0 -1 -0
    outer loop
      vertex 6.62906 6.64824 6.2
      vertex 2.98105 6.64824 1.2
      vertex 6.62906 6.64824 1.2
    endloop
  endfacet
  facet normal 0.938893 -0.344209 0
    outer loop
      vertex 0.550049 0.0172424 6.2
      vertex 2.98105 6.64824 1.2
      vertex 2.98105 6.64824 6.2
    endloop
  endfacet
  facet normal 0.938893 -0.344209 0
    outer loop
      vertex 2.98105 6.64824 1.2
      vertex 0.550049 0.0172424 6.2
      vertex 0.550049 0.0172424 1.2
    endloop
  endfacet
  facet normal 0.952861 -0.303407 0
    outer loop
      vertex -0.154922 -2.19675 6.2
      vertex 0.550049 0.0172424 1.2
      vertex 0.550049 0.0172424 6.2
    endloop
  endfacet
  facet normal 0.952861 -0.303407 0
    outer loop
      vertex 0.550049 0.0172424 1.2
      vertex -0.154922 -2.19675 6.2
      vertex -0.154922 -2.19675 1.2
    endloop
  endfacet
  facet normal -0.952853 -0.303432 0
    outer loop
      vertex -0.154922 -2.19675 1.2
      vertex -0.277863 -1.81068 6.2
      vertex -0.277863 -1.81068 1.2
    endloop
  endfacet
  facet normal -0.952853 -0.303432 0
    outer loop
      vertex -0.277863 -1.81068 6.2
      vertex -0.154922 -2.19675 1.2
      vertex -0.154922 -2.19675 6.2
    endloop
  endfacet
  facet normal -0.954792 -0.297274 0
    outer loop
      vertex -0.277863 -1.81068 1.2
      vertex -0.375687 -1.49649 6.2
      vertex -0.375687 -1.49649 1.2
    endloop
  endfacet
  facet normal -0.954792 -0.297274 0
    outer loop
      vertex -0.375687 -1.49649 6.2
      vertex -0.277863 -1.81068 1.2
      vertex -0.277863 -1.81068 6.2
    endloop
  endfacet
  facet normal -0.957843 -0.287293 0
    outer loop
      vertex -0.375687 -1.49649 1.2
      vertex -0.448364 -1.25418 6.2
      vertex -0.448364 -1.25418 1.2
    endloop
  endfacet
  facet normal -0.957843 -0.287293 0
    outer loop
      vertex -0.448364 -1.25418 6.2
      vertex -0.375687 -1.49649 1.2
      vertex -0.375687 -1.49649 6.2
    endloop
  endfacet
  facet normal -0.963201 -0.268782 0
    outer loop
      vertex -0.448364 -1.25418 1.2
      vertex -0.495926 -1.08374 6.2
      vertex -0.495926 -1.08374 1.2
    endloop
  endfacet
  facet normal -0.963201 -0.268782 0
    outer loop
      vertex -0.495926 -1.08374 6.2
      vertex -0.448364 -1.25418 1.2
      vertex -0.448364 -1.25418 6.2
    endloop
  endfacet
  facet normal -0.956567 -0.291512 0
    outer loop
      vertex -0.495926 -1.08374 1.2
      vertex -0.579865 -0.808304 6.2
      vertex -0.579865 -0.808304 1.2
    endloop
  endfacet
  facet normal -0.956567 -0.291512 0
    outer loop
      vertex -0.579865 -0.808304 6.2
      vertex -0.495926 -1.08374 1.2
      vertex -0.495926 -1.08374 6.2
    endloop
  endfacet
  facet normal -0.953701 -0.300757 0
    outer loop
      vertex -0.579865 -0.808304 1.2
      vertex -0.666687 -0.53299 6.2
      vertex -0.666687 -0.53299 1.2
    endloop
  endfacet
  facet normal -0.953701 -0.300757 0
    outer loop
      vertex -0.666687 -0.53299 6.2
      vertex -0.579865 -0.808304 1.2
      vertex -0.579865 -0.808304 6.2
    endloop
  endfacet
  facet normal -0.950787 -0.309847 0
    outer loop
      vertex -0.666687 -0.53299 1.2
      vertex -0.756363 -0.257812 6.2
      vertex -0.756363 -0.257812 1.2
    endloop
  endfacet
  facet normal -0.950787 -0.309847 0
    outer loop
      vertex -0.756363 -0.257812 6.2
      vertex -0.666687 -0.53299 1.2
      vertex -0.666687 -0.53299 6.2
    endloop
  endfacet
  facet normal -0.947775 -0.31894 0
    outer loop
      vertex -0.756363 -0.257812 1.2
      vertex -0.848923 0.0172424 6.2
      vertex -0.848923 0.0172424 1.2
    endloop
  endfacet
  facet normal -0.947775 -0.31894 0
    outer loop
      vertex -0.848923 0.0172424 6.2
      vertex -0.756363 -0.257812 1.2
      vertex -0.756363 -0.257812 6.2
    endloop
  endfacet
  facet normal -0.941301 -0.337569 0
    outer loop
      vertex -0.848923 0.0172424 1.2
      vertex -3.22693 6.64824 6.2
      vertex -3.22693 6.64824 1.2
    endloop
  endfacet
  facet normal -0.941301 -0.337569 0
    outer loop
      vertex -3.22693 6.64824 6.2
      vertex -0.848923 0.0172424 1.2
      vertex -0.848923 0.0172424 6.2
    endloop
  endfacet
  facet normal 0 -1 0
    outer loop
      vertex -6.87492 6.64824 1.2
      vertex -3.22693 6.64824 6.2
      vertex -6.87492 6.64824 6.2
    endloop
  endfacet
  facet normal 0 -1 -0
    outer loop
      vertex -3.22693 6.64824 6.2
      vertex -6.87492 6.64824 1.2
      vertex -3.22693 6.64824 1.2
    endloop
  endfacet
  facet normal 0.92921 0.369552 0
    outer loop
      vertex -1.70793 -6.34375 6.2
      vertex -6.87492 6.64824 1.2
      vertex -6.87492 6.64824 6.2
    endloop
  endfacet
  facet normal 0.92921 0.369552 0
    outer loop
      vertex -6.87492 6.64824 1.2
      vertex -1.70793 -6.34375 6.2
      vertex -1.70793 -6.34375 1.2
    endloop
  endfacet
  facet normal 0 1 -0
    outer loop
      vertex 1.38905 -6.34375 1.2
      vertex -1.70793 -6.34375 6.2
      vertex 1.38905 -6.34375 6.2
    endloop
  endfacet
  facet normal 0 1 0
    outer loop
      vertex -1.70793 -6.34375 6.2
      vertex 1.38905 -6.34375 1.2
      vertex -1.70793 -6.34375 1.2
    endloop
  endfacet
  facet normal -0.927409 0.374048 0
    outer loop
      vertex 1.38905 -6.34375 1.2
      vertex 6.62906 6.64824 6.2
      vertex 6.62906 6.64824 1.2
    endloop
  endfacet
  facet normal -0.927409 0.374048 0
    outer loop
      vertex 6.62906 6.64824 6.2
      vertex 1.38905 -6.34375 1.2
      vertex 1.38905 -6.34375 6.2
    endloop
  endfacet
endsolid OpenSCAD_Model
