<?xml version="1.0" encoding="UTF-8" standalone="no"?>
<!-- Created with Inkscape (http://www.inkscape.org/) -->

<svg
   xmlns:dc="http://purl.org/dc/elements/1.1/"
   xmlns:cc="http://creativecommons.org/ns#"
   xmlns:rdf="http://www.w3.org/1999/02/22-rdf-syntax-ns#"
   xmlns:svg="http://www.w3.org/2000/svg"
   xmlns="http://www.w3.org/2000/svg"
   xmlns:sodipodi="http://sodipodi.sourceforge.net/DTD/sodipodi-0.dtd"
   xmlns:inkscape="http://www.inkscape.org/namespaces/inkscape"
   width="1052.3622"
   height="744.09448"
   id="svg2"
   version="1.1"
   inkscape:version="0.48.4 r9939"
   sodipodi:docname="station_logo.svg">
  <defs
     id="defs4" />
  <sodipodi:namedview
     id="base"
     pagecolor="#ffffff"
     bordercolor="#666666"
     borderopacity="1.0"
     inkscape:pageopacity="0.0"
     inkscape:pageshadow="2"
     inkscape:zoom="1.1396402"
     inkscape:cx="526.18109"
     inkscape:cy="372.04724"
     inkscape:document-units="mm"
     inkscape:current-layer="g5277"
     showgrid="false"
     units="mm"
     inkscape:snap-bbox="true"
     inkscape:object-nodes="true"
     inkscape:window-width="1920"
     inkscape:window-height="1018"
     inkscape:window-x="0"
     inkscape:window-y="27"
     inkscape:window-maximized="1">
    <inkscape:grid
       type="xygrid"
       id="grid2991"
       empspacing="5"
       visible="true"
       enabled="true"
       snapvisiblegridlinesonly="true"
       units="mm"
       spacingx="1mm"
       spacingy="1mm" />
  </sodipodi:namedview>
  <metadata
     id="metadata7">
    <rdf:RDF>
      <cc:Work
         rdf:about="">
        <dc:format>image/svg+xml</dc:format>
        <dc:type
           rdf:resource="http://purl.org/dc/dcmitype/StillImage" />
        <dc:title></dc:title>
      </cc:Work>
    </rdf:RDF>
  </metadata>
  <g
     inkscape:label="Layer 1"
     inkscape:groupmode="layer"
     id="layer1"
     transform="translate(0,-308.26769)">
    <g
       id="g5283"
       transform="translate(13.036775,0)">
      <text
         sodipodi:linespacing="125%"
         id="text2995"
         y="1043.8464"
         x="179.25314"
         style="font-size:20px;font-style:normal;font-variant:normal;font-weight:normal;font-stretch:normal;text-align:start;line-height:125%;letter-spacing:0px;word-spacing:0px;text-anchor:start;fill:#000000;fill-opacity:1;stroke:none;font-family:Red Rocket Academy;-inkscape-font-specification:Red Rocket Academy"
         xml:space="preserve"><tspan
           y="1043.8464"
           x="179.25314"
           id="tspan2997"
           sodipodi:role="line"></tspan></text>
      <g
         id="g5277">
        <g
           style="font-size:20px;font-style:normal;font-variant:normal;font-weight:normal;font-stretch:normal;text-align:start;line-height:125%;letter-spacing:0px;word-spacing:0px;text-anchor:start;fill:#000000;fill-opacity:1;stroke:none;font-family:Red Rocket Academy;-inkscape-font-specification:Red Rocket Academy"
           id="text2985">
          <path
             d="m 174.16832,854.75851 c 0.76787,-3.74394 0.38387,-6.28794 -1.152,-7.632 -1.53613,-1.34393 -3.60012,-2.01593 -6.192,-2.016 l -16.416,0 -13.104,65.376 -29.232,0 13.104,-65.376 -25.920004,0 -13.104,65.376 -29.088,0 18.288,-91.728 110.448004,0 c 4.12786,9e-5 7.58386,0.52809 10.368,1.584 2.87985,1.05609 5.27985,2.54409 7.2,4.464 1.91984,1.92008 3.40784,4.22408 4.464,6.912 1.05584,2.59208 1.87184,5.52007 2.448,8.784 l -13.968,69.984 -29.232,0 11.088,-55.728"
             style="font-size:144px;font-style:italic;font-family:Red Rocket;-inkscape-font-specification:Red Rocket Italic"
             id="path5329" />
          <path
             d="m 275.73782,910.48651 21.888,0 13.68,-68.112 -66.528,0 c -2.88005,7e-5 -6.09605,0.52807 -9.648,1.584 -3.55204,0.96007 -7.00804,2.54407 -10.368,4.752 -3.36003,2.20806 -6.48003,5.18406 -9.36,8.928 -2.78402,3.64805 -4.94402,8.11205 -6.48,13.392 l -7.92,39.456 21.744,0 3.168,-15.984 52.992,0 -3.168,15.984 m 9.504,-48.384 -2.448,12.528 -52.848,0 c 1.34396,-2.30396 2.49596,-4.17596 3.456,-5.616 1.05596,-1.43996 2.20796,-2.59195 3.456,-3.456 1.24795,-0.95995 2.83195,-1.67995 4.752,-2.16 1.91995,-0.47995 4.46395,-0.91195 7.632,-1.296 l 36,0"
             style="font-size:144px;font-style:italic;font-family:Red Rocket;-inkscape-font-specification:Red Rocket Italic"
             id="path5331" />
          <path
             d="m 375.75482,886.29451 c 2.78392,3e-5 4.89592,0.81602 6.336,2.448 1.53591,1.53602 2.06391,3.40802 1.584,5.616 l -3.168,16.128 21.6,0 5.184,-25.776 c 0.95989,-4.99197 -0.24011,-9.21596 -3.6,-12.672 l 0,0.144 c -2.4961,-2.78396 -5.8561,-4.46396 -10.08,-5.04 l 20.304,-24.624 -24.336,0 -20.88,24.336 -32.4,0 4.752,-24.336 -21.888,0 -13.536,67.968 21.888,0 4.896,-24.192 43.344,0"
             style="font-size:144px;font-style:italic;font-family:Red Rocket;-inkscape-font-specification:Red Rocket Italic"
             id="path5333" />
          <path
             d="m 482.25182,886.29451 3.888,-19.44 -45.216,0 c 0.38396,-1.05595 1.15196,-2.11195 2.304,-3.168 1.24796,-1.05595 3.21596,-1.58395 5.904,-1.584 l 67.392,0 4.032,-19.728 -81.36,0 c -2.30403,7e-5 -4.46403,0.52807 -6.48,1.584 -2.01603,0.96007 -3.84003,2.16007 -5.472,3.6 -1.53602,1.44006 -2.88002,3.02406 -4.032,4.752 -1.05602,1.63206 -1.77602,3.07206 -2.16,4.32 l -10.8,53.856 96.624,0 3.888,-19.44 -74.736,0 1.008,-4.752 45.216,0"
             style="font-size:144px;font-style:italic;font-family:Red Rocket;-inkscape-font-specification:Red Rocket Italic"
             id="path5335" />
          <path
             d="m 557.21282,844.67851 -1.296,6.912 61.2,0 -5.184,25.92 -61.344,0 -6.624,32.976 -29.088,0 18.432,-91.872 130.32,0 -5.328,26.064 -101.088,0"
             style="font-size:144px;font-style:italic;font-family:Red Rocket;-inkscape-font-specification:Red Rocket Italic"
             id="path5337" />
          <path
             d="m 725.81432,886.29451 3.888,-19.44 -45.216,0 c 0.38396,-1.05595 1.15196,-2.11195 2.304,-3.168 1.24796,-1.05595 3.21596,-1.58395 5.904,-1.584 l 67.392,0 4.032,-19.728 -81.36,0 c -2.30403,7e-5 -4.46403,0.52807 -6.48,1.584 -2.01603,0.96007 -3.84003,2.16007 -5.472,3.6 -1.53602,1.44006 -2.88002,3.02406 -4.032,4.752 -1.05602,1.63206 -1.77602,3.07206 -2.16,4.32 l -10.8,53.856 96.624,0 3.888,-19.44 -74.736,0 1.008,-4.752 45.216,0"
             style="font-size:144px;font-style:italic;font-family:Red Rocket;-inkscape-font-specification:Red Rocket Italic"
             id="path5339" />
          <path
             d="m 829.86332,890.90251 -67.536,0 -3.888,19.584 69.552,0 c 2.59192,0 5.47192,-0.432 8.64,-1.296 3.16791,-0.96 6.23991,-2.49599 9.216,-4.608 3.0719,-2.11199 5.8559,-4.79999 8.352,-8.064 2.49589,-3.26398 4.46389,-7.29598 5.904,-12.096 l 3.6,-17.568 -74.592,0 c 0.76796,-1.53595 1.91996,-2.68795 3.456,-3.456 1.63196,-0.86395 4.07995,-1.29595 7.344,-1.296 l 64.656,0 4.032,-19.728 -72.432,0 c -2.78404,7e-5 -5.76004,0.76807 -8.928,2.304 -3.16803,1.44007 -6.14403,3.36006 -8.928,5.76 -2.78403,2.40006 -5.23202,5.13606 -7.344,8.208 -2.01602,3.07205 -3.36002,6.19205 -4.032,9.36 l -3.6,17.856 73.872,0 c -0.57609,1.24802 -1.39209,2.40002 -2.448,3.456 -0.96008,1.05602 -2.59208,1.58402 -4.896,1.584"
             style="font-size:144px;font-style:italic;font-family:Red Rocket;-inkscape-font-specification:Red Rocket Italic"
             id="path5341" />
          <path
             d="m 900.36032,910.48651 9.648,-48.384 -37.296,0 4.032,-19.728 96.48,0 -4.032,19.728 -37.44,0 -9.648,48.384 -21.744,0"
             style="font-size:144px;font-style:italic;font-family:Red Rocket;-inkscape-font-specification:Red Rocket Italic"
             id="path5343" />
        </g>
        <g
           style="font-size:10.22777176px;font-style:normal;font-variant:normal;font-weight:normal;font-stretch:normal;text-align:start;line-height:125%;letter-spacing:0px;word-spacing:0px;text-anchor:start;fill:#808080;fill-opacity:1;stroke:none;font-family:Red Rocket Academy;-inkscape-font-specification:Red Rocket Academy"
           id="text2999">
          <path
             d="m 229.13209,787.84207 -9.35227,46.90866 14.94891,0 6.70124,-33.43254 36.74634,0 -1.1046,5.30207 c -0.4419,0.83462 -0.95738,1.57102 -1.54644,2.2092 -0.54008,0.34368 -1.10465,0.66279 -1.69372,0.95732 -0.58917,0.24549 -1.32557,0.36823 -2.2092,0.3682 l -28.71958,0 -2.72468,13.47612 14.87527,0 8.8368,11.11963 19.07275,0 -8.91044,-11.48783 c 3.19101,-0.6382 6.5539,-2.38101 10.08868,-5.22844 4.36923,-3.38742 6.92208,-6.89759 7.65856,-10.53052 l 3.90291,-19.66187 -66.57053,0"
             style="font-size:73.63996887px;font-style:italic;fill:#808080;font-family:Red Rocket;-inkscape-font-specification:Red Rocket Italic"
             id="path5318" />
          <path
             d="m 342.52614,834.75073 14.94891,0 9.42592,-46.9823 -45.8777,0 c -1.76739,5e-5 -3.85386,0.3437 -6.2594,1.03096 -2.4056,0.68735 -4.81117,1.8165 -7.21672,3.38744 -2.40559,1.52193 -4.63933,3.5593 -6.70123,6.11212 -2.01284,2.50379 -3.53473,5.57212 -4.56568,9.20499 l -5.44936,27.24679 14.87527,0 2.2092,-11.04599 36.81999,0 -2.2092,11.04599 m 6.55396,-33.43254 -1.76736,8.76315 -36.67271,0 c 0.34363,-1.47277 0.73638,-2.7492 1.17824,-3.82928 0.49091,-1.12911 1.20276,-2.06188 2.13556,-2.79831 0.93275,-0.73637 2.16008,-1.2764 3.682,-1.62008 1.52186,-0.39272 3.53468,-0.58909 6.03848,-0.58912 l 25.40579,0.0736"
             style="font-size:73.63996887px;font-style:italic;fill:#808080;font-family:Red Rocket;-inkscape-font-specification:Red Rocket Italic"
             id="path5320" />
          <path
             d="m 411.22072,821.34826 c 1.08,10e-6 1.96368,-0.14727 2.65104,-0.44184 0.73635,-0.29455 1.32547,-0.66275 1.76736,-1.1046 0.44178,-0.44183 0.78544,-0.93276 1.03096,-1.4728 0.24541,-0.54001 0.41724,-1.05549 0.51548,-1.54644 l 3.09288,-15.68531 -36.74635,0 -6.70123,33.65346 -14.94892,0 9.42592,-46.9823 66.64417,0 -7.43764,37.18819 c -0.34372,0.88369 -0.88374,1.8901 -1.62007,3.01924 -0.68738,1.12915 -1.57106,2.2092 -2.65104,3.24015 -1.08012,0.98187 -2.30745,1.81646 -3.682,2.50376 -1.37468,0.68731 -2.87202,1.03096 -4.49204,1.03096 l -37.92458,0 2.65103,-13.40247 28.42503,0"
             style="font-size:73.63996887px;font-style:italic;fill:#808080;font-family:Red Rocket;-inkscape-font-specification:Red Rocket Italic"
             id="path5322" />
          <path
             d="m 457.16056,787.98935 -14.87527,0 -9.35228,46.76138 14.87528,0 9.35227,-46.76138"
             style="font-size:73.63996887px;font-style:italic;fill:#808080;font-family:Red Rocket;-inkscape-font-specification:Red Rocket Italic"
             id="path5324" />
          <path
             d="m 506.84682,817.51898 c -6e-5,-0.14726 0.0245,-0.27 0.0736,-0.3682 0.0981,-0.14726 0.22086,-0.34364 0.3682,-0.58912 l 3.09288,-15.24347 -29.52963,0 c -2.45469,3e-5 -4.32024,0.44187 -5.59664,1.32552 -1.22735,0.83461 -2.06194,1.84103 -2.50375,3.01923 l -3.16652,15.68532 31.95974,0 c 0.83454,10e-6 1.54639,-0.12272 2.13556,-0.3682 0.58907,-0.24545 1.08,-0.56456 1.4728,-0.95732 0.44179,-0.39273 0.78544,-0.81003 1.03096,-1.25188 0.24541,-0.44182 0.46633,-0.85912 0.66276,-1.25188 m -54.64086,17.23175 5.8912,-29.30871 c 0.44183,-2.20916 1.3746,-4.36927 2.79832,-6.48031 1.42369,-2.11098 3.09287,-3.97652 5.00752,-5.59664 1.91462,-1.66913 3.95199,-3.01919 6.11212,-4.0502 2.20917,-1.03091 4.27109,-1.54639 6.18575,-1.54644 l 50.00154,0 -5.81756,29.01415 c -1.03103,3.43655 -2.43018,6.3085 -4.19747,8.61588 -1.76743,2.30739 -3.68207,4.14839 -5.74392,5.52299 -2.06198,1.37462 -4.17299,2.35648 -6.33304,2.9456 -2.16016,0.58912 -4.12389,0.88368 -5.8912,0.88368 l -48.01326,0"
             style="font-size:73.63996887px;font-style:italic;fill:#808080;font-family:Red Rocket;-inkscape-font-specification:Red Rocket Italic"
             id="path5326" />
        </g>
      </g>
      <g
         id="g5270">
        <path
           inkscape:connector-curvature="0"
           id="path3007"
           d="m 798.77441,835.21268 -2.16701,-43.34005 108.3501,-21.67004 0,-54.17507 -110.5171,-10.83502 0,-32.50505 34.67205,0 0,-65.01009 -36.83905,0 0,-10.835 -67.17709,0 0,10.83501 -36.83905,-10e-6 0,65.01009 34.67204,0 0,32.50505 -110.51715,10.83502 0,54.17507 108.35015,21.67004 -2.16701,43.34005"
           style="fill:none;stroke:#000000;stroke-width:10.8350153;stroke-linecap:butt;stroke-linejoin:miter;stroke-miterlimit:4;stroke-opacity:1;stroke-dasharray:none"
           sodipodi:nodetypes="cccccccccccccccccccc" />
        <text
           xml:space="preserve"
           style="font-size:20.05121803px;font-style:normal;font-variant:normal;font-weight:normal;font-stretch:normal;text-align:start;line-height:125%;letter-spacing:0px;word-spacing:0px;text-anchor:start;fill:#000000;fill-opacity:1;stroke:none;font-family:Red Rocket Academy;-inkscape-font-specification:Red Rocket Academy"
           x="758.26685"
           y="649.7746"
           id="text5260"
           sodipodi:linespacing="125%"><tspan
             sodipodi:role="line"
             id="tspan5262"
             x="758.26685"
             y="649.7746"
             style="font-style:italic;font-variant:normal;font-weight:normal;font-stretch:normal;text-align:center;text-anchor:middle;font-family:Raoul TRANSPORT Britannique;-inkscape-font-specification:Raoul TRANSPORT Britannique Italic"
             dx="0 -1.396046 -2.3267436 -2.7920926 0 0 -1.5511622">90.5 FM</tspan></text>
        <text
           sodipodi:linespacing="125%"
           id="text5266"
           y="753.95142"
           x="758.62982"
           style="font-size:24.79343224px;font-style:normal;font-variant:normal;font-weight:normal;font-stretch:normal;text-align:start;line-height:125%;letter-spacing:0px;word-spacing:0px;text-anchor:start;fill:#000000;fill-opacity:1;stroke:none;font-family:Red Rocket Academy;-inkscape-font-specification:Red Rocket Academy"
           xml:space="preserve"><tspan
             style="font-style:normal;font-variant:normal;font-weight:normal;font-stretch:normal;text-align:center;text-anchor:middle;font-family:Red Rocket;-inkscape-font-specification:Red Rocket"
             y="753.95142"
             x="758.62982"
             id="tspan5268"
             sodipodi:role="line">DoES Liverpool</tspan></text>
      </g>
    </g>
  </g>
</svg>
